<?xml version="1.0" encoding="UTF-8"?><svg id="Layer_1" xmlns="http://www.w3.org/2000/svg" viewBox="0 0 801 123"><defs><style>.cls-1{fill:#fff;}.cls-2{fill:#9450ff;}</style></defs><polygon class="cls-2" points="41.4 39.62 51.15 57.45 68.98 67.2 51.15 76.95 41.4 94.78 31.65 76.95 13.82 67.2 31.65 57.45 41.4 39.62"/><polygon class="cls-2" points="77.08 27.95 81.59 36.2 89.84 40.72 81.59 45.23 77.08 53.48 72.57 45.23 64.31 40.72 72.57 36.2 77.08 27.95"/><path class="cls-2" d="m112.92,92.58c-.84-.84-1.26-1.88-1.26-3.12v-57c0-1.29.42-2.34,1.26-3.16.84-.81,1.88-1.22,3.11-1.22h38.05c1.29,0,2.33.38,3.11,1.14s1.18,1.75,1.18,2.99-.39,2.13-1.18,2.86c-.79.73-1.82,1.09-3.11,1.09h-33.68v20.46h24.16c1.23,0,2.26.38,3.07,1.14.81.76,1.22,1.73,1.22,2.9s-.41,2.15-1.22,2.9c-.81.76-1.84,1.14-3.07,1.14h-24.16v21.05h33.68c1.29,0,2.33.37,3.11,1.09s1.18,1.68,1.18,2.86c0,1.24-.39,2.23-1.18,2.99-.79.76-1.82,1.14-3.11,1.14h-38.05c-1.23,0-2.27-.42-3.11-1.26Z"/><path class="cls-2" d="m206.03,49.77c.39.59.59,1.25.59,1.98,0,.5-.14,1.04-.42,1.6l-17.85,37.63c-.84,1.85-2.13,2.78-3.87,2.78-.96,0-1.74-.21-2.36-.63-.62-.42-1.18-1.14-1.68-2.15l-17.85-37.63c-.22-.45-.34-.95-.34-1.52,0-1.52.79-2.67,2.36-3.45.51-.28,1.09-.42,1.77-.42s1.32.18,1.93.55c.62.37,1.09.88,1.43,1.56l14.65,31.57,14.48-31.57c.34-.67.83-1.19,1.47-1.56.65-.36,1.33-.55,2.06-.55s1.37.14,1.94.42c.73.34,1.29.8,1.68,1.39Z"/><path class="cls-2" d="m252.75,72.75c-.73.7-1.66,1.05-2.78,1.05h-31.99c.62,3.93,2.4,7.1,5.35,9.51,2.95,2.41,6.55,3.62,10.82,3.62,1.69,0,3.44-.31,5.26-.93,1.82-.62,3.33-1.37,4.51-2.27.79-.62,1.71-.93,2.78-.93s1.91.28,2.53.84c1.01.84,1.52,1.8,1.52,2.86,0,1.01-.45,1.85-1.35,2.53-1.91,1.52-4.28,2.75-7.11,3.7-2.84.96-5.54,1.43-8.13,1.43-4.6,0-8.73-1-12.37-2.99-3.65-1.99-6.5-4.76-8.54-8.29-2.05-3.54-3.07-7.55-3.07-12.04s.97-8.52,2.9-12.08c1.94-3.56,4.63-6.34,8.08-8.33,3.45-1.99,7.37-2.99,11.74-2.99s8.05.96,11.2,2.86c3.14,1.91,5.56,4.58,7.24,8,1.68,3.42,2.53,7.35,2.53,11.79,0,1.07-.37,1.95-1.09,2.65Zm-29.85-14.69c-2.55,2.25-4.17,5.25-4.84,9.01h28.03c-.51-3.76-1.91-6.76-4.21-9.01-2.3-2.24-5.3-3.37-9.01-3.37-4.1,0-7.42,1.12-9.98,3.37Z"/><path class="cls-2" d="m297.29,49.89c3.09,1.68,5.5,4.14,7.24,7.37,1.74,3.23,2.61,7.11,2.61,11.66v20.71c0,1.23-.41,2.26-1.22,3.07s-1.84,1.22-3.07,1.22-2.26-.41-3.07-1.22c-.82-.81-1.22-1.84-1.22-3.07v-20.71c0-4.55-1.22-7.98-3.66-10.31-2.44-2.33-5.68-3.49-9.72-3.49-2.36,0-4.51.48-6.44,1.43-1.94.96-3.45,2.25-4.55,3.87-1.09,1.63-1.64,3.45-1.64,5.47v23.74c0,1.23-.39,2.26-1.18,3.07-.79.81-1.83,1.22-3.12,1.22s-2.26-.41-3.07-1.22c-.82-.81-1.22-1.84-1.22-3.07v-37.55c0-1.29.41-2.33,1.22-3.12.81-.79,1.84-1.18,3.07-1.18s2.33.39,3.12,1.18c.78.79,1.18,1.82,1.18,3.12v.93c1.8-1.8,3.93-3.18,6.4-4.17,2.47-.98,5.11-1.47,7.91-1.47,3.87,0,7.35.84,10.44,2.53Z"/><path class="cls-2" d="m342.71,86.6c.7.79,1.05,1.8,1.05,3.03s-.46,2.25-1.39,3.03c-.93.79-2.12,1.18-3.58,1.18h-1.52c-2.75,0-5.26-.72-7.53-2.15-2.27-1.43-4.06-3.38-5.35-5.85-1.29-2.47-1.94-5.25-1.94-8.33v-20.79h-3.87c-1.18,0-2.13-.34-2.86-1.01-.73-.67-1.09-1.51-1.09-2.53,0-1.12.36-2.02,1.09-2.69.73-.67,1.68-1.01,2.86-1.01h3.87v-12.12c0-1.23.39-2.24,1.18-3.03.78-.79,1.8-1.18,3.03-1.18s2.24.39,3.03,1.18c.78.79,1.18,1.8,1.18,3.03v12.12h7.16c1.18,0,2.13.34,2.86,1.01s1.1,1.57,1.1,2.69c0,1.01-.37,1.85-1.1,2.53s-1.68,1.01-2.86,1.01h-7.16v20.79c0,2.24.62,4.12,1.85,5.64,1.24,1.52,2.75,2.27,4.55,2.27h2.86c1.01,0,1.86.39,2.57,1.18Z"/><path class="cls-1" d="m364.49,90.98c-4.46-2.47-7.54-5.7-9.22-9.68-.28-.67-.42-1.23-.42-1.68,0-.84.31-1.59.93-2.23.62-.65,1.46-1.08,2.53-1.31.17-.05.45-.08.84-.08.9,0,1.75.27,2.57.8.81.53,1.42,1.25,1.81,2.15,1.01,2.19,3,4.04,5.98,5.56,2.97,1.52,6.26,2.27,9.85,2.27,4.21,0,7.77-.97,10.69-2.9,2.92-1.94,4.38-4.59,4.38-7.96s-1.24-5.93-3.7-8.21c-2.47-2.27-6.23-3.66-11.28-4.17-6.96-.67-12.43-2.71-16.42-6.1-3.99-3.39-5.98-7.65-5.98-12.75,0-3.59,1.02-6.69,3.07-9.3,2.05-2.61,4.85-4.6,8.42-5.98,3.56-1.37,7.56-2.06,12-2.06,4.83,0,8.9.98,12.21,2.95,3.31,1.96,6.12,4.77,8.42,8.42.67,1.07,1.01,2.08,1.01,3.03,0,1.24-.56,2.25-1.68,3.03-.62.39-1.35.59-2.19.59s-1.63-.21-2.36-.63c-.73-.42-1.29-1-1.68-1.73-1.52-2.53-3.41-4.45-5.68-5.77-2.27-1.32-5.15-1.98-8.63-1.98-4.27,0-7.72.83-10.36,2.48-2.64,1.66-3.96,4.06-3.96,7.2,0,2.92,1.18,5.36,3.54,7.32,2.36,1.97,6.57,3.26,12.63,3.87,6.73.67,11.95,2.71,15.66,6.1,3.7,3.4,5.56,7.87,5.56,13.43,0,4.04-1.09,7.51-3.28,10.4-2.19,2.89-5.09,5.05-8.71,6.48-3.62,1.43-7.51,2.15-11.66,2.15-5.44,0-10.4-1.23-14.86-3.71Z"/><path class="cls-1" d="m436.89,86.6c.7.79,1.05,1.8,1.05,3.03s-.46,2.25-1.39,3.03c-.93.79-2.12,1.18-3.58,1.18h-1.52c-2.75,0-5.26-.72-7.54-2.15-2.27-1.43-4.05-3.38-5.35-5.85-1.29-2.47-1.94-5.25-1.94-8.33v-20.79h-3.87c-1.18,0-2.13-.34-2.86-1.01-.73-.67-1.09-1.51-1.09-2.53,0-1.12.36-2.02,1.09-2.69.73-.67,1.68-1.01,2.86-1.01h3.87v-12.12c0-1.23.39-2.24,1.18-3.03s1.8-1.18,3.03-1.18,2.24.39,3.03,1.18c.79.79,1.18,1.8,1.18,3.03v12.12h7.16c1.18,0,2.13.34,2.86,1.01.73.67,1.09,1.57,1.09,2.69,0,1.01-.37,1.85-1.09,2.53-.73.67-1.68,1.01-2.86,1.01h-7.16v20.79c0,2.24.62,4.12,1.85,5.64s2.75,2.27,4.55,2.27h2.86c1.01,0,1.86.39,2.57,1.18Z"/><path class="cls-1" d="m480.25,50.53c3.51,2.05,6.28,4.86,8.33,8.42,2.05,3.56,3.07,7.54,3.07,11.91v18.77c0,1.23-.41,2.26-1.22,3.07-.81.81-1.84,1.22-3.07,1.22s-2.26-.41-3.07-1.22c-.82-.81-1.22-1.84-1.22-3.07v-3.11c-1.96,2.41-4.35,4.29-7.16,5.64s-5.84,2.02-9.09,2.02c-4.04,0-7.7-1.01-10.99-3.03s-5.87-4.81-7.74-8.38c-1.88-3.56-2.82-7.54-2.82-11.91s1.01-8.35,3.03-11.91c2.02-3.56,4.81-6.37,8.38-8.42,3.56-2.05,7.51-3.07,11.83-3.07s8.24,1.02,11.74,3.07Zm-4.13,34.01c2.27-1.38,4.05-3.25,5.35-5.64s1.94-5.06,1.94-8.04-.65-5.67-1.94-8.08c-1.29-2.41-3.07-4.31-5.35-5.68-2.27-1.38-4.81-2.06-7.62-2.06s-5.35.69-7.62,2.06c-2.27,1.38-4.07,3.27-5.39,5.68-1.32,2.41-1.98,5.11-1.98,8.08s.66,5.66,1.98,8.04c1.32,2.39,3.12,4.26,5.39,5.64,2.27,1.38,4.81,2.06,7.62,2.06s5.35-.69,7.62-2.06Z"/><path class="cls-1" d="m525.79,86.6c.7.79,1.05,1.8,1.05,3.03s-.46,2.25-1.39,3.03c-.93.79-2.12,1.18-3.58,1.18h-1.52c-2.75,0-5.26-.72-7.54-2.15-2.27-1.43-4.05-3.38-5.35-5.85-1.29-2.47-1.94-5.25-1.94-8.33v-20.79h-3.87c-1.18,0-2.13-.34-2.86-1.01-.73-.67-1.09-1.51-1.09-2.53,0-1.12.36-2.02,1.09-2.69.73-.67,1.68-1.01,2.86-1.01h3.87v-12.12c0-1.23.39-2.24,1.18-3.03s1.8-1.18,3.03-1.18,2.24.39,3.03,1.18c.79.79,1.18,1.8,1.18,3.03v12.12h7.16c1.18,0,2.13.34,2.86,1.01.73.67,1.09,1.57,1.09,2.69,0,1.01-.37,1.85-1.09,2.53-.73.67-1.68,1.01-2.86,1.01h-7.16v20.79c0,2.24.62,4.12,1.85,5.64s2.75,2.27,4.55,2.27h2.86c1.01,0,1.86.39,2.57,1.18Z"/><path class="cls-1" d="m537.75,38.65c-1.09-1.09-1.64-2.4-1.64-3.91s.55-2.82,1.64-3.91c1.09-1.09,2.4-1.64,3.91-1.64s2.82.55,3.91,1.64c1.09,1.09,1.64,2.4,1.64,3.91s-.55,2.82-1.64,3.91c-1.09,1.09-2.4,1.64-3.91,1.64s-2.82-.55-3.91-1.64Zm.84,53.96c-.81-.81-1.22-1.84-1.22-3.07v-37.46c0-1.29.41-2.33,1.22-3.12.81-.79,1.84-1.18,3.07-1.18s2.33.39,3.12,1.18c.79.79,1.18,1.82,1.18,3.12v37.46c0,1.23-.39,2.26-1.18,3.07-.79.81-1.83,1.22-3.12,1.22s-2.26-.41-3.07-1.22Z"/><path class="cls-1" d="m569.95,91.19c-3.54-1.99-6.29-4.76-8.25-8.29-1.97-3.54-2.95-7.55-2.95-12.04s.98-8.59,2.95-12.12c1.96-3.54,4.71-6.3,8.25-8.29,3.54-1.99,7.55-2.99,12.04-2.99s8.4,1,11.91,2.99c3.51,1.99,6.26,4.76,8.25,8.29,1.99,3.54,2.99,7.58,2.99,12.12s-.98,8.5-2.95,12.04-4.7,6.3-8.21,8.29c-3.51,1.99-7.51,2.99-12,2.99s-8.5-1-12.04-2.99Zm19.74-6.61c2.27-1.35,4.04-3.21,5.3-5.6,1.26-2.39,1.9-5.09,1.9-8.12s-.63-5.75-1.9-8.17c-1.26-2.41-3.03-4.29-5.3-5.64-2.27-1.35-4.84-2.02-7.7-2.02s-5.43.67-7.7,2.02c-2.27,1.35-4.06,3.23-5.35,5.64-1.29,2.41-1.94,5.14-1.94,8.17s.65,5.74,1.94,8.12c1.29,2.39,3.07,4.25,5.35,5.6,2.27,1.35,4.84,2.02,7.7,2.02s5.43-.67,7.7-2.02Z"/><path class="cls-1" d="m650.43,49.89c3.09,1.68,5.5,4.14,7.24,7.37,1.74,3.23,2.61,7.11,2.61,11.66v20.71c0,1.23-.41,2.26-1.22,3.07s-1.84,1.22-3.07,1.22-2.26-.41-3.07-1.22-1.22-1.84-1.22-3.07v-20.71c0-4.55-1.22-7.98-3.66-10.31-2.44-2.33-5.68-3.49-9.72-3.49-2.36,0-4.5.48-6.44,1.43-1.94.96-3.45,2.25-4.55,3.87-1.09,1.63-1.64,3.45-1.64,5.47v23.74c0,1.23-.39,2.26-1.18,3.07-.79.81-1.82,1.22-3.11,1.22s-2.26-.41-3.07-1.22-1.22-1.84-1.22-3.07v-37.55c0-1.29.41-2.33,1.22-3.12.81-.79,1.84-1.18,3.07-1.18s2.33.39,3.11,1.18c.79.79,1.18,1.82,1.18,3.12v.93c1.8-1.8,3.93-3.18,6.4-4.17,2.47-.98,5.11-1.47,7.91-1.47,3.87,0,7.35.84,10.44,2.53Z"/><path class="cls-1" d="m675.28,92.99c-1.15-1.15-1.73-2.51-1.73-4.08s.58-3.02,1.73-4.17c1.15-1.15,2.51-1.73,4.08-1.73s2.93.58,4.08,1.73c1.15,1.15,1.73,2.54,1.73,4.17s-.56,2.93-1.68,4.08c-1.12,1.15-2.5,1.73-4.12,1.73s-2.93-.58-4.08-1.73Z"/><path class="cls-1" d="m728.74,50.06c3.51,2.05,6.29,4.86,8.33,8.42,2.05,3.56,3.07,7.53,3.07,11.91v18.77c0,1.24-.41,2.26-1.22,3.07-.81.81-1.84,1.22-3.07,1.22s-2.26-.41-3.07-1.22c-.81-.81-1.22-1.84-1.22-3.07v-3.11c-1.97,2.41-4.35,4.29-7.16,5.64-2.81,1.35-5.84,2.02-9.09,2.02-4.04,0-7.7-1.01-10.99-3.03s-5.87-4.81-7.75-8.38c-1.88-3.56-2.82-7.53-2.82-11.91s1.01-8.35,3.03-11.91c2.02-3.56,4.81-6.37,8.38-8.42,3.56-2.05,7.51-3.07,11.83-3.07s8.24,1.02,11.74,3.07Zm-4.12,34.01c2.27-1.37,4.05-3.25,5.35-5.64,1.29-2.38,1.94-5.06,1.94-8.04s-.65-5.67-1.94-8.08c-1.29-2.41-3.07-4.31-5.35-5.68-2.27-1.38-4.81-2.06-7.62-2.06s-5.35.69-7.62,2.06c-2.27,1.38-4.07,3.27-5.39,5.68-1.32,2.41-1.98,5.11-1.98,8.08s.66,5.66,1.98,8.04c1.32,2.39,3.12,4.27,5.39,5.64,2.27,1.38,4.81,2.06,7.62,2.06s5.35-.69,7.62-2.06Z"/><path class="cls-1" d="m753.32,38.19c-1.09-1.09-1.64-2.4-1.64-3.91s.55-2.82,1.64-3.92c1.09-1.09,2.4-1.64,3.92-1.64s2.82.55,3.91,1.64c1.09,1.09,1.64,2.4,1.64,3.92s-.55,2.82-1.64,3.91c-1.09,1.09-2.4,1.64-3.91,1.64s-2.82-.55-3.92-1.64Zm.84,53.96c-.81-.81-1.22-1.84-1.22-3.07v-37.46c0-1.29.41-2.33,1.22-3.12.81-.79,1.84-1.18,3.07-1.18s2.33.39,3.11,1.18c.79.79,1.18,1.82,1.18,3.12v37.46c0,1.23-.39,2.26-1.18,3.07-.79.81-1.82,1.22-3.11,1.22s-2.26-.41-3.07-1.22Z"/></svg>